<svg width="17" height="17" viewBox="0 0 17 17" fill="none" xmlns="http://www.w3.org/2000/svg">
<path d="M4.25391 4.50391H4.50391V4.25391V0.527344C4.50391 0.373934 4.62784 0.25 4.78125 0.25H6.89062C7.04403 0.25 7.16797 0.373934 7.16797 0.527344V6.89062C7.16797 7.04403 7.04403 7.16797 6.89062 7.16797H0.527344C0.373934 7.16797 0.25 7.04403 0.25 6.89062V4.78125C0.25 4.62784 0.373934 4.50391 0.527344 4.50391H4.25391Z" fill="black" stroke="white" stroke-width="0.5"/>
<path d="M4.50391 12.1641V11.9141H4.25391H0.527344C0.373934 11.9141 0.25 11.7901 0.25 11.6367V9.52734C0.25 9.37393 0.373934 9.25 0.527344 9.25H6.89062C7.04403 9.25 7.16797 9.37393 7.16797 9.52734V15.8906C7.16797 16.044 7.04403 16.168 6.89062 16.168H4.78125C4.62784 16.168 4.50391 16.044 4.50391 15.8906V12.1641Z" fill="black" stroke="white" stroke-width="0.5"/>
<path d="M12.1641 11.9141H11.9141V12.1641V15.8906C11.9141 16.044 11.7901 16.168 11.6367 16.168H9.52734C9.37393 16.168 9.25 16.044 9.25 15.8906V9.52734C9.25 9.37393 9.37393 9.25 9.52734 9.25H15.8906C16.044 9.25 16.168 9.37393 16.168 9.52734V11.6367C16.168 11.7901 16.044 11.9141 15.8906 11.9141H12.1641Z" fill="black" stroke="white" stroke-width="0.5"/>
<path d="M11.9141 4.25391V4.50391H12.1641H15.8906C16.044 4.50391 16.168 4.62784 16.168 4.78125V6.89062C16.168 7.04403 16.044 7.16797 15.8906 7.16797H9.52734C9.37393 7.16797 9.25 7.04403 9.25 6.89062V0.527344C9.25 0.373934 9.37393 0.25 9.52734 0.25H11.6367C11.7901 0.25 11.9141 0.373934 11.9141 0.527344V4.25391Z" fill="black" stroke="white" stroke-width="0.5"/>
</svg>
