<svg width="18" height="18" viewBox="0 0 18 18" fill="none" xmlns="http://www.w3.org/2000/svg"><g clip-path="url(#clip0)" fill="#00642F"><path d="M8.25 17.239C3.7 17.239 0 13.538 0 8.989 0 4.44 3.701.74 8.25.74c1.582 0 3.12.451 4.45 1.304a.563.563 0 01-.608.948A7.094 7.094 0 008.25 1.864c-3.929 0-7.125 3.197-7.125 7.125s3.196 7.125 7.125 7.125c3.928 0 7.124-3.197 7.124-7.125a7.37 7.37 0 00-.033-.696.562.562 0 111.12-.109c.026.265.038.534.038.805 0 4.549-3.7 8.25-8.25 8.25z"/><path d="M9.187 10.864a.558.558 0 01-.397-.165L5.415 7.324a.563.563 0 01.796-.796l2.977 2.978 7.851-7.852a.563.563 0 01.796.796l-8.25 8.25a.564.564 0 01-.398.164z"/></g><defs><clipPath id="clip0"><path fill="#fff" d="M0 0h18v18H0z"/></clipPath></defs></svg>