<svg width="20" height="20" viewBox="0 0 20 20" fill="none" xmlns="http://www.w3.org/2000/svg"><path d="M7.646 14.507a2.782 2.782 0 00-3.955 0 2.936 2.936 0 00-.808 1.784h5.57a2.9 2.9 0 00-.807-1.784zM7.205 9.5a1.556 1.556 0 11-3.072.498A1.556 1.556 0 017.205 9.5zM18.52 1.256H1.48A1.48 1.48 0 000 2.736V4.74h20V2.736a1.48 1.48 0 00-1.48-1.48z" fill="#00642F"/><path d="M0 17.265c0 .817.663 1.479 1.48 1.48h17.04a1.481 1.481 0 001.48-1.48V5.368H0v11.897zm11.744-9.251h5.673a.314.314 0 010 .628h-5.673a.314.314 0 010-.628zm0 2.61h5.673a.314.314 0 010 .627h-5.673a.314.314 0 010-.627zm0 2.61h5.673a.314.314 0 110 .627h-5.673a.314.314 0 010-.627zm0 2.61h5.673a.314.314 0 110 .627h-5.673a.314.314 0 010-.627zM5.668 7.565a2.182 2.182 0 11-.004 4.364 2.182 2.182 0 01.004-4.364zm-2.426 6.503a3.41 3.41 0 014.852 0c.646.659 1 1.56 1 2.538a.312.312 0 01-.314.314H2.556a.312.312 0 01-.314-.314c0-.978.354-1.88 1-2.538z" fill="#00642F"/></svg>