<svg width="21" height="21" viewBox="0 0 21 21" fill="none" xmlns="http://www.w3.org/2000/svg"><path d="M3.186 14.938v1.41c0 .341.277.618.618.618h13.392a.618.618 0 00.618-.618v-1.41H3.186zM21 7.314a2 2 0 00-1.998-1.998 2 2 0 00-1.998 1.998c0 .53.207 1.011.545 1.37a3.27 3.27 0 01-2.443 1.095 3.283 3.283 0 01-3.203-2.586c.367-.362.595-.866.595-1.421A2 2 0 0010.5 3.773a2 2 0 00-1.998 1.999c0 .555.228 1.059.595 1.421A3.283 3.283 0 015.894 9.78 3.27 3.27 0 013.45 8.683a1.99 1.99 0 00.545-1.37 2 2 0 00-1.998-1.997A2 2 0 000 7.314a2 2 0 001.57 1.951c.177 1.464.52 3.247 1.182 4.673h15.496c.662-1.426 1.005-3.209 1.182-4.673A2.001 2.001 0 0021 7.314z" fill="#00642F"/></svg>