<svg width="21" height="21" viewBox="0 0 21 21" fill="none" xmlns="http://www.w3.org/2000/svg">
<g clip-path="url(#clip0)">
<path d="M16.6496 7.45009C14.8691 5.48358 13.811 3.75247 13.2368 2.64649C12.615 1.44856 12.4112 0.705723 12.4096 0.699811L12.2245 0L11.5634 0.294876C11.4862 0.329318 9.65962 1.1623 8.63615 3.20919C8.12239 4.23676 8.01963 5.38083 8.02395 6.15959C8.02645 6.6128 7.70534 7.00632 7.26046 7.09528C6.94855 7.1576 6.62769 7.06063 6.40256 6.83551L5.17113 5.60407L4.74751 6.1882C4.70355 6.24883 3.6683 7.67658 3.47983 7.96184C2.55949 9.35502 2.07959 10.9779 2.09203 12.6551C2.1087 14.8951 2.98959 16.9937 4.57243 18.5644C6.15518 20.135 8.26053 21 10.5006 21C15.1372 21 18.9094 17.2278 18.9094 12.5912C18.9094 10.9101 18.0858 9.03625 16.6496 7.45009ZM10.5007 19.7684C8.58771 19.7684 6.79046 19.0304 5.43998 17.6902C4.08945 16.3501 3.33787 14.5586 3.32363 12.6459C3.31296 11.2141 3.72233 9.82913 4.50744 8.64072C4.6033 8.49564 4.98783 7.95918 5.32162 7.49623L5.53177 7.70638C6.04869 8.2233 6.78508 8.44634 7.50209 8.30295C8.52379 8.09859 9.26125 7.19438 9.25554 6.15285C9.25197 5.5083 9.33276 4.56998 9.73774 3.75994C10.2307 2.77408 10.9676 2.12977 11.4797 1.77147C11.9428 2.94949 13.1169 5.38325 15.7367 8.27675C16.3204 8.92135 17.6779 10.6321 17.6779 12.5913C17.6779 16.5487 14.4582 19.7684 10.5007 19.7684Z" fill="#00642F"/>
<path d="M11.75 10.4482L7.88867 16.1029H9.25385L13.1152 10.4482H11.75Z" fill="#00642F"/>
<path d="M12.5729 13.0332C11.7166 13.0332 11.0703 13.6067 11.0703 14.6084C11.0703 15.6182 11.7166 16.1836 12.5729 16.1836C13.4292 16.1836 14.0754 15.6182 14.0754 14.6084C14.0754 13.6067 13.4291 13.0332 12.5729 13.0332ZM12.5729 15.3112C12.3951 15.3112 12.2174 15.1496 12.2174 14.6084C12.2174 14.0672 12.3951 13.9056 12.5729 13.9056C12.7506 13.9056 12.9283 14.0672 12.9283 14.6084C12.9283 15.1496 12.7506 15.3112 12.5729 15.3112Z" fill="#00642F"/>
<path d="M9.93086 11.9424C9.93086 10.9407 9.28462 10.3672 8.42832 10.3672C7.57202 10.3672 6.92578 10.9407 6.92578 11.9424C6.92578 12.9522 7.57202 13.5176 8.42832 13.5176C9.28462 13.5176 9.93086 12.9522 9.93086 11.9424ZM8.07289 11.9424C8.07289 11.4012 8.25061 11.2396 8.42832 11.2396C8.60603 11.2396 8.78375 11.4012 8.78375 11.9424C8.78375 12.4836 8.60603 12.6452 8.42832 12.6452C8.25061 12.6452 8.07289 12.4836 8.07289 11.9424Z" fill="#00642F"/>
</g>
<defs>
<clipPath id="clip0">
<rect width="21" height="21" fill="white"/>
</clipPath>
</defs>
</svg>
