<svg width="18" height="18" viewBox="0 0 18 18" fill="none" xmlns="http://www.w3.org/2000/svg"><path d="M15.188 0H2.812A2.816 2.816 0 000 2.813v.703a.703.703 0 101.406 0v-.704c0-.775.631-1.406 1.407-1.406h12.374c.776 0 1.407.631 1.407 1.407v12.374c0 .776-.631 1.407-1.407 1.407H2.813a1.408 1.408 0 01-1.407-1.407v-.703a.703.703 0 10-1.406 0v.704A2.816 2.816 0 002.813 18h12.374A2.816 2.816 0 0018 15.187V2.813A2.816 2.816 0 0015.187 0z" fill="#3AB54A"/><path d="M1.617 9.502l-.005-.005a.704.704 0 01.002-.996l2.611-2.626a.703.703 0 10-.997-.992L.618 7.508a2.112 2.112 0 00-.003 2.981l2.61 2.66a.7.7 0 00.994.01.703.703 0 00.01-.995L1.616 9.502z" fill="#3AB54A"/><path d="M11.707 8.297H4.219a.703.703 0 100 1.406h7.488a.703.703 0 100-1.406z" fill="#3AB54A"/></svg>