<svg width="44" height="44" viewBox="0 0 44 44" fill="none" xmlns="http://www.w3.org/2000/svg">
<path d="M23.2891 27.5859H40.4766V3.86719C40.4766 1.73482 38.7417 0 36.6094 0H23.2891V27.5859ZM27.5 17.2734C28.2119 17.2734 28.7891 17.8506 28.7891 18.5625V20.625C28.7891 21.3369 28.2119 21.9141 27.5 21.9141C26.7881 21.9141 26.2109 21.3369 26.2109 20.625V18.5625C26.2109 17.8506 26.7881 17.2734 27.5 17.2734Z" fill="#595959"/>
<path d="M23.2891 30.1641V41.1641H31.7109V42.7109C31.7109 43.4228 32.2881 44 33 44C33.7119 44 34.2891 43.4228 34.2891 42.7109V41.1641H36.6094C38.7417 41.1641 40.4766 39.4292 40.4766 37.2969V30.1641H23.2891ZM31.625 35.75H29.5625C28.8506 35.75 28.2734 35.1728 28.2734 34.4609C28.2734 33.749 28.8506 33.1719 29.5625 33.1719H31.625C32.3369 33.1719 32.9141 33.749 32.9141 34.4609C32.9141 35.1728 32.3369 35.75 31.625 35.75Z" fill="#595959"/>
<path d="M20.7109 0H7.39062C5.25826 0 3.52344 1.73482 3.52344 3.86719V37.2969C3.52344 39.4292 5.25826 41.1641 7.39062 41.1641H9.71094V42.7109C9.71094 43.4228 10.2881 44 11 44C11.7119 44 12.2891 43.4228 12.2891 42.7109V41.1641H20.7109V0ZM16.5 21.9141C15.7881 21.9141 15.2109 21.3369 15.2109 20.625V18.5625C15.2109 17.8506 15.7881 17.2734 16.5 17.2734C17.2119 17.2734 17.7891 17.8506 17.7891 18.5625V20.625C17.7891 21.3369 17.2119 21.9141 16.5 21.9141Z" fill="#595959"/>
</svg>
