<svg width="44" height="44" viewBox="0 0 44 44" fill="none" xmlns="http://www.w3.org/2000/svg">
<path d="M16.8437 29.8203C16.8437 26.9826 19.1469 24.6756 21.9825 24.6658C20.8927 23.8526 19.5548 23.375 18.1328 23.375C14.2514 23.375 11.0423 26.859 11.7983 31.0338C12.3699 34.2088 15.1718 36.2672 18.1328 36.2677C19.4447 36.2679 20.7876 35.8642 21.9818 34.9747C19.1468 34.9646 16.8437 32.6578 16.8437 29.8203Z" fill="#595959"/>
<path d="M24.5781 7.73438H11.6875V10.3125H24.5781V7.73438Z" fill="#595959"/>
<path d="M18.1328 20.7969C21.1231 20.7969 23.8527 22.2923 25.5137 24.6641H32.3125V3.86719C32.3125 1.73473 30.5778 0 28.4453 0H7.82031C5.68786 0 3.95312 1.73473 3.95312 3.86719V40.1328C3.95312 42.2653 5.68786 44 7.82031 44H28.4453C30.5778 44 32.3125 42.2653 32.3125 40.1328V34.9766H25.5203C23.8487 37.3854 21.1152 38.8438 18.1316 38.8438C13.6136 38.8438 10.0024 35.6016 9.26045 31.4921C8.24029 25.8386 12.5439 20.7969 18.1328 20.7969ZM9.10938 11.6016V6.44531C9.10938 5.7328 9.68593 5.15625 10.3984 5.15625H25.8672C26.5797 5.15625 27.1562 5.7328 27.1562 6.44531V11.6016C27.1562 12.3141 26.5797 12.8906 25.8672 12.8906H10.3984C9.68593 12.8906 9.10938 12.3141 9.10938 11.6016Z" fill="#595959"/>
<path d="M37.4688 27.2422H22C20.5761 27.2422 19.4219 28.3964 19.4219 29.8203C19.4219 31.244 20.5761 32.3984 22 32.3984H37.4688C38.8926 32.3984 40.0469 31.244 40.0469 29.8203C40.0469 28.3964 38.8926 27.2422 37.4688 27.2422Z" fill="#595959"/>
</svg>
