<svg width="23" height="23" viewBox="0 0 23 23" fill="none" xmlns="http://www.w3.org/2000/svg"><g clip-path="url(#clip0)" fill="#00642F"><path d="M8.444 10.508a.961.961 0 100-1.923.961.961 0 000 1.923zm6.108 3.902a.961.961 0 100-1.923.961.961 0 000 1.923z"/><path d="M22.479 12.77l-.35-.476a1.5 1.5 0 01-.013-1.748l.339-.481a1.5 1.5 0 00-.518-2.187l-.519-.278a1.494 1.494 0 01-.768-1.57l.099-.579a1.497 1.497 0 00-1.414-1.744l-.589-.023a1.502 1.502 0 01-1.376-1.08l-.165-.565a1.494 1.494 0 00-2.031-.957l-.542.231a1.494 1.494 0 01-1.706-.377l-.392-.438a1.494 1.494 0 00-2.243.019L9.905.96a1.499 1.499 0 01-1.702.4l-.546-.226a1.5 1.5 0 00-2.017.99l-.156.57a1.488 1.488 0 01-1.357 1.098l-.59.033c-.9.052-1.55.881-1.385 1.767l.108.58a1.494 1.494 0 01-.744 1.579l-.514.287a1.496 1.496 0 00-.48 2.192l.348.476a1.5 1.5 0 01.014 1.748l-.34.481a1.5 1.5 0 00.52 2.187l.518.278c.565.301.876.933.768 1.57l-.099.579a1.497 1.497 0 001.414 1.744l.589.023a1.502 1.502 0 011.376 1.08l.165.565a1.494 1.494 0 002.031.957l.542-.231a1.493 1.493 0 011.706.377l.392.438c.603.67 1.654.665 2.243-.019l.386-.443a1.498 1.498 0 011.702-.4l.546.226a1.5 1.5 0 002.017-.99l.156-.57a1.488 1.488 0 011.357-1.098l.59-.033c.9-.052 1.55-.881 1.385-1.767l-.108-.58a1.494 1.494 0 01.744-1.579l.514-.287a1.494 1.494 0 00.48-2.192zM6.12 9.547a2.317 2.317 0 012.319-2.32 2.317 2.317 0 012.319 2.32 2.317 2.317 0 01-2.319 2.318A2.32 2.32 0 016.12 9.547zm2.767 5.98a.567.567 0 01-.797.075.567.567 0 01-.075-.796l6.084-7.328a.567.567 0 01.797-.076c.24.198.273.556.075.797l-6.084 7.328zm5.665.24a2.317 2.317 0 01-2.32-2.318 2.317 2.317 0 012.32-2.319 2.317 2.317 0 012.318 2.319 2.317 2.317 0 01-2.318 2.319z"/></g><defs><clipPath id="clip0"><path fill="#fff" d="M0 0h23v23H0z"/></clipPath></defs></svg>