<svg width="14" height="14" viewBox="0 0 14 14" fill="none" xmlns="http://www.w3.org/2000/svg">
<path d="M5.76902 11.5302C2.59012 11.5302 0.00390625 8.94402 0.00390625 5.76512C0.00390625 2.58622 2.59012 0 5.76902 0C8.94793 0 11.5341 2.58622 11.5341 5.76512C11.5341 8.94402 8.94793 11.5302 5.76902 11.5302ZM5.76902 1.09291C3.19275 1.09291 1.09682 3.18885 1.09682 5.76512C1.09682 8.34139 3.19275 10.4373 5.76902 10.4373C8.34529 10.4373 10.4412 8.34139 10.4412 5.76512C10.4412 3.18885 8.34529 1.09291 5.76902 1.09291ZM13.8332 13.8399C14.0466 13.6265 14.0466 13.2805 13.8332 13.0671L11.3878 10.6217C11.1744 10.4083 10.8283 10.4083 10.6149 10.6217C10.4016 10.8351 10.4016 11.1812 10.6149 11.3945L13.0603 13.8399C13.167 13.9466 13.3069 14 13.4468 14C13.5866 14 13.7264 13.9466 13.8332 13.8399Z" fill="#00642F"/>
</svg>
