<svg width="21" height="21" viewBox="0 0 21 21" fill="none" xmlns="http://www.w3.org/2000/svg">
<path d="M20.2311 8.64384C21.2563 9.66897 21.2563 11.331 20.2311 12.3562C19.206 13.3813 17.5439 13.3813 16.5188 12.3562C15.4937 11.331 15.4937 9.66897 16.5188 8.64384C17.5439 7.61872 19.206 7.61872 20.2311 8.64384Z" fill="#00642F"/>
<path d="M12.3562 8.64384C13.3813 9.66897 13.3813 11.331 12.3562 12.3562C11.3311 13.3813 9.66899 13.3813 8.64387 12.3562C7.61875 11.331 7.61875 9.66897 8.64387 8.64384C9.66899 7.61872 11.3311 7.61872 12.3562 8.64384Z" fill="#00642F"/>
<path d="M4.48117 8.64384C5.5063 9.66897 5.5063 11.331 4.48117 12.3562C3.45605 13.3813 1.79399 13.3813 0.768872 12.3562C-0.25625 11.331 -0.25625 9.66897 0.768872 8.64384C1.79399 7.61872 3.45605 7.61872 4.48117 8.64384Z" fill="#00642F"/>
</svg>
