<svg width="18" height="22" viewBox="0 0 18 22" fill="none" xmlns="http://www.w3.org/2000/svg"><path d="M13.222 14.174l2.29.723c1.408.44 2.324 1.697 2.324 3.112v1.13c0 .755-.589 1.384-1.309 1.478-2.52.597-5.04.912-7.56.912-2.52 0-5.04-.315-7.494-.88-.786-.095-1.375-.723-1.375-1.478V18.04c0-1.414.95-2.671 2.324-3.111l2.29-.723c.917-.283 1.539-1.069 1.604-1.949l-.589-.66a2.52 2.52 0 01-.49-.66l-.753-1.446c-.72-.157-1.244-.754-1.244-1.477V7.04c0-.66.458-1.226 1.047-1.446V4.023C4.287 2.074 5.924.534 7.92.534h2.062c2.029 0 3.633 1.572 3.633 3.489v1.571c.621.22 1.047.754 1.047 1.446v.974c0 .723-.524 1.352-1.244 1.477l-.752 1.446a2.52 2.52 0 01-.491.66l-.622.597a2.412 2.412 0 001.669 1.98z" fill="#00642F"/></svg>