<svg width="15" height="15" viewBox="0 0 15 15" fill="none" xmlns="http://www.w3.org/2000/svg">
<path d="M14.9859 5.04281L14.1375 1.64719C14.0334 1.23 13.6584 0.9375 13.2281 0.9375H1.77281C1.3425 0.9375 0.9675 1.23 0.8625 1.64719L0.0140625 5.04281C0.0046875 5.07938 0 5.11781 0 5.15625C0 6.44812 0.998438 7.5 2.22656 7.5C2.94 7.5 3.57656 7.14469 3.98438 6.59344C4.39219 7.14469 5.02875 7.5 5.74219 7.5C6.45563 7.5 7.09219 7.14469 7.5 6.59344C7.90781 7.14469 8.54344 7.5 9.25781 7.5C9.97219 7.5 10.6078 7.14469 11.0156 6.59344C11.4234 7.14469 12.0591 7.5 12.7734 7.5C14.0016 7.5 15 6.44812 15 5.15625C15 5.11781 14.9953 5.07938 14.9859 5.04281Z" fill="#00642F"/>
<path d="M12.7734 8.43797C12.135 8.43797 11.5284 8.24297 11.0156 7.88672C9.99 8.60016 8.52562 8.60016 7.5 7.88672C6.47438 8.60016 5.01 8.60016 3.98438 7.88672C3.47156 8.24297 2.865 8.43797 2.22656 8.43797C1.76625 8.43797 1.33219 8.33016 0.9375 8.14641V13.1255C0.9375 13.643 1.3575 14.063 1.875 14.063H5.625V10.313H9.375V14.063H13.125C13.6425 14.063 14.0625 13.643 14.0625 13.1255V8.14641C13.6678 8.33016 13.2338 8.43797 12.7734 8.43797Z" fill="#00642F"/>
</svg>
