<svg width="17" height="17" viewBox="0 0 17 17" fill="none" xmlns="http://www.w3.org/2000/svg">
<rect x="0.5" y="0.5" width="16" height="16" rx="8" fill="white" stroke="#CD0000"/>
<g clip-path="url(#clip0)">
<path d="M9.32456 8.50779L12.829 5.00326C13.0571 4.77531 13.0571 4.40673 12.829 4.17878C12.601 3.95082 12.2325 3.95082 12.0045 4.17878L8.49997 7.68331L4.99553 4.17878C4.76747 3.95082 4.399 3.95082 4.17105 4.17878C3.94298 4.40673 3.94298 4.77531 4.17105 5.00326L7.67548 8.50779L4.17105 12.0123C3.94298 12.2403 3.94298 12.6088 4.17105 12.8368C4.28465 12.9505 4.43402 13.0076 4.58329 13.0076C4.73256 13.0076 4.88182 12.9505 4.99553 12.8368L8.49997 9.33227L12.0045 12.8368C12.1182 12.9505 12.2675 13.0076 12.4168 13.0076C12.566 13.0076 12.7153 12.9505 12.829 12.8368C13.0571 12.6088 13.0571 12.2403 12.829 12.0123L9.32456 8.50779Z" fill="#CD0000"/>
</g>
<defs>
<clipPath id="clip0">
<rect width="9" height="9" fill="white" transform="translate(4 4)"/>
</clipPath>
</defs>
</svg>
