<svg width="20" height="20" viewBox="0 0 20 20" fill="none" xmlns="http://www.w3.org/2000/svg"><path d="M4.62 8.07h-.758V4.862l1.001-1.001h10.274l1.001 1.001V8.07h-.759v1.172h1.931V4.378L15.622 2.69h-3.691V0H8.069v2.69H4.378L2.69 4.378V9.24h1.93V8.069zM0 14.62v2.69h2.02a1.92 1.92 0 000 1.518H0V20h20v-1.172h-2.02a1.92 1.92 0 000-1.518H20v-2.69H0zm5.57 4.208a1.92 1.92 0 000-1.518h2.7a1.92 1.92 0 000 1.518h-2.7zm6.25 0a1.92 1.92 0 000-1.518h2.61a1.92 1.92 0 000 1.518h-2.61z" fill="#00642F"/><path d="M10.759 7.636V5.38H9.241v2.256L10 7.198l.759.438z" fill="#00642F"/><path d="M5.38 5.38v8.07h9.24V5.38h-2.69v4.286L10 8.55 8.07 9.666V5.38H5.38z" fill="#00642F"/></svg>