<svg width="17" height="17" viewBox="0 0 17 17" fill="none" xmlns="http://www.w3.org/2000/svg">
<path d="M16.5355 7.49291C16.4804 7.14755 16.1557 6.91228 15.8104 6.96738C15.465 7.02248 15.2297 7.34713 15.2848 7.69248C15.2854 7.69627 15.2861 7.70001 15.2867 7.70376C15.9316 11.4998 13.377 15.0998 9.58101 15.7446C5.78498 16.3895 2.18497 13.835 1.54012 10.0389C0.895275 6.24291 3.44984 2.6429 7.24583 1.99806C9.58031 1.6015 11.9565 2.41695 13.5555 4.16341L10.7503 5.09803C10.4185 5.20845 10.239 5.56694 10.3494 5.89878C10.3494 5.89886 10.3495 5.89897 10.3495 5.89904C10.4599 6.23089 10.8184 6.41036 11.1503 6.29998C11.1504 6.29994 11.1505 6.2999 11.1505 6.2999L14.9499 5.03347C15.2085 4.94732 15.383 4.70523 15.383 4.43256V0.633233C15.383 0.283502 15.0995 0 14.7498 0C14.4 0 14.1165 0.283502 14.1165 0.633233V2.94637C10.8555 -0.155275 5.69749 -0.026046 2.59585 3.23499C-0.505803 6.49603 -0.376611 11.654 2.88447 14.7557C6.14555 17.8574 11.3035 17.7282 14.4052 14.4671C16.1739 12.6075 16.9632 10.0234 16.5355 7.49291Z" fill="white"/>
</svg>
