<svg width="18" height="18" viewBox="0 0 18 18" fill="none" xmlns="http://www.w3.org/2000/svg">
<path d="M14.1012 1.36586L12.2586 0.304031L10.4159 1.36586L8.57331 0.304031L6.73067 1.36582L4.36029 0V14.1542H1.52881V16.0565C1.52881 17.1282 2.40065 18 3.47232 18H14.5281C15.5997 18 16.4716 17.1282 16.4716 16.0565V0L14.1012 1.36586ZM3.47232 16.9445C2.98266 16.9445 2.58427 16.5462 2.58427 16.0565V15.2097H12.5846V16.0565C12.5846 16.3762 12.6622 16.6782 12.7996 16.9445H3.47232ZM14.528 16.9445C14.0384 16.9445 13.64 16.5462 13.64 16.0565V14.1542H5.41575V1.8263L6.73063 2.58395L8.57328 1.52223L10.4159 2.58395L12.2586 1.5222L14.1012 2.58395L15.4161 1.8263V16.0565C15.4161 16.5462 15.0177 16.9445 14.528 16.9445Z" fill="#00642F"/>
<path d="M14.3604 4.76367H6.47119V5.81913H14.3604V4.76367Z" fill="#00642F"/>
<path d="M14.3604 6.77637H6.47119V7.83183H14.3604V6.77637Z" fill="#00642F"/>
<path d="M10.4158 8.78906H6.47119V9.84454H10.4158V8.78906Z" fill="#00642F"/>
</svg>
