<svg width="16" height="17" viewBox="0 0 16 17" fill="none" xmlns="http://www.w3.org/2000/svg"><path d="M15.92 13.492l-.894-11.254A1.406 1.406 0 0013.63.945h-1.764V3.56a.586.586 0 11-1.171 0V.945h-5.39V3.56a.586.586 0 11-1.17 0V.945H2.37c-.727 0-1.34.568-1.396 1.292L.081 13.494a3.26 3.26 0 00.858 2.462A3.267 3.267 0 003.328 17h9.345c.904 0 1.774-.38 2.389-1.044.614-.663.927-1.56.857-2.463zm-5.28-5.73L7.61 10.79a.584.584 0 01-.829 0l-1.42-1.42a.585.585 0 11.828-.828l1.006 1.005 2.616-2.615a.586.586 0 01.828.828z" fill="#00642F"/></svg>