<svg width="23" height="23" viewBox="0 0 23 23" fill="none" xmlns="http://www.w3.org/2000/svg"><g clip-path="url(#clip0)" fill="#00642F"><path d="M20.607 18.966L19.58 6.024a1.617 1.617 0 00-1.605-1.487h-2.03v3.006a.673.673 0 11-1.346 0V4.537H8.402v3.006a.674.674 0 11-1.348 0V4.537H5.026c-.837 0-1.542.653-1.606 1.485L2.393 18.968a3.756 3.756 0 00.986 2.831A3.757 3.757 0 006.127 23h10.747c1.04 0 2.04-.437 2.747-1.2a3.755 3.755 0 00.986-2.833zM11.5 0a4.451 4.451 0 00-4.446 4.446v.091h1.348v-.09a3.102 3.102 0 013.098-3.1 3.102 3.102 0 013.099 3.1v.09h1.347v-.09A4.451 4.451 0 0011.5 0z"/></g><defs><clipPath id="clip0"><path fill="#fff" d="M0 0h23v23H0z"/></clipPath></defs></svg>