<svg width="19" height="19" viewBox="0 0 19 19" fill="none" xmlns="http://www.w3.org/2000/svg"><path d="M7.273 1.484h4.454a.742.742 0 100-1.484H7.273a.742.742 0 100 1.484zM11.6 7.687l-2.625 2.624a.742.742 0 101.05 1.05l2.624-2.624a.742.742 0 10-1.05-1.05z" fill="#DCB900"/><path d="M9.5 2.672a8.16 8.16 0 00-8.164 8.164A8.16 8.16 0 009.5 19a8.16 8.16 0 008.164-8.164A8.16 8.16 0 009.5 2.672zm0 14.844a6.687 6.687 0 01-6.68-6.68 6.687 6.687 0 016.68-6.68 6.687 6.687 0 016.68 6.68 6.687 6.687 0 01-6.68 6.68z" fill="#DCB900"/></svg>