<svg width="19" height="19" viewBox="0 0 19 19" fill="none" xmlns="http://www.w3.org/2000/svg"><path d="M16.263 0H2.737A2.74 2.74 0 000 2.737v13.526A2.74 2.74 0 002.737 19h4.388a.792.792 0 000-1.583H2.737a1.155 1.155 0 01-1.154-1.154V2.737c0-.636.518-1.154 1.154-1.154h3.596v3.959a.792.792 0 001.231.658L9.5 4.91l1.936 1.29a.79.79 0 001.23-.658V1.583h3.597c.636 0 1.154.518 1.154 1.154v2.805a.792.792 0 001.583 0V2.737A2.74 2.74 0 0016.263 0z" fill="#00642F"/><path d="M13.458 7.917a5.548 5.548 0 00-5.541 5.542A5.548 5.548 0 0013.458 19 5.548 5.548 0 0019 13.46a5.548 5.548 0 00-5.542-5.542zm2.375 6.333h-2.375a.792.792 0 01-.791-.791v-2.375a.792.792 0 011.583 0v1.583h1.583a.792.792 0 010 1.583z" fill="#00642F"/></svg>