<svg width="19" height="19" viewBox="0 0 19 19" fill="none" xmlns="http://www.w3.org/2000/svg"><path d="M9.5 0c.307 0 .557.25.557.557v3.577a.557.557 0 01-1.114 0V.557c0-.308.25-.557.557-.557zm0 14.31c.307 0 .557.249.557.556v3.578a.557.557 0 01-1.114 0v-3.578c0-.307.25-.556.557-.556zm2.2-9.735l1.79-3.098a.557.557 0 11.964.556l-1.789 3.098a.556.556 0 11-.964-.556zM4.546 16.967l1.789-3.098a.557.557 0 11.964.557L5.51 17.524a.556.556 0 11-.964-.557zm9.323-10.632l3.098-1.789a.556.556 0 11.556.965l-3.098 1.788a.554.554 0 01-.76-.203.557.557 0 01.204-.76zM1.476 13.49l3.099-1.79a.557.557 0 11.556.965l-3.098 1.788a.554.554 0 01-.76-.203.557.557 0 01.203-.76zm13.39-4.547h3.577a.557.557 0 010 1.114h-3.577a.557.557 0 010-1.114zm-14.309 0h3.577a.557.557 0 010 1.114H.557a.557.557 0 010-1.114zm13.108 2.961a.556.556 0 01.76-.203l3.098 1.788a.557.557 0 01-.556.964l-3.098-1.788a.557.557 0 01-.204-.76zM1.273 4.75a.557.557 0 01.76-.204l3.098 1.79a.557.557 0 01-.556.963L1.477 5.51a.557.557 0 01-.204-.76zm10.632 8.915a.557.557 0 01.76.204l1.789 3.098a.557.557 0 01-.964.557l-1.79-3.098a.557.557 0 01.205-.76zM4.75 1.273a.556.556 0 01.76.204L7.3 4.575a.557.557 0 01-.964.556l-1.79-3.098a.557.557 0 01.204-.76z" fill="#00642F"/></svg>