<svg width="13" height="13" viewBox="0 0 13 13" fill="none" xmlns="http://www.w3.org/2000/svg">
<path d="M6.50011 6.38083C7.72872 6.38083 8.72482 5.17103 8.72482 3.67871C8.72482 2.18636 8.39773 0.976562 6.50011 0.976562C4.60241 0.976562 4.27539 2.18636 4.27539 3.67871C4.27542 5.17103 5.27149 6.38083 6.50011 6.38083Z" fill="#00642F"/>
<path d="M10.6973 10.3993C10.6562 7.79954 10.3166 7.05877 7.71848 6.58984C7.71848 6.58984 7.35268 7.05586 6.50024 7.05586C5.6478 7.05586 5.28207 6.58984 5.28207 6.58984C2.71225 7.05362 2.35202 7.78343 2.30467 10.3148C2.30082 10.5215 2.29904 10.5323 2.29834 10.5083C2.29847 10.5533 2.29867 10.6364 2.29867 10.7815C2.29867 10.7815 2.91725 12.0284 6.50028 12.0284C10.0833 12.0284 10.7019 10.7815 10.7019 10.7815C10.7019 10.6883 10.702 10.6235 10.7021 10.5794C10.7014 10.5943 10.6999 10.5655 10.6973 10.3993Z" fill="#00642F"/>
<path d="M9.58756 5.89804C10.5855 5.89804 11.3944 4.91548 11.3944 3.70343C11.3944 2.49136 11.1288 1.50879 9.58756 1.50879C9.32832 1.50879 9.10524 1.53668 8.91333 1.58875C9.26932 2.245 9.31811 3.04209 9.31811 3.67835C9.31811 4.39876 9.12282 5.08655 8.76318 5.65604C9.01037 5.81041 9.29048 5.89804 9.58756 5.89804Z" fill="#00642F"/>
<path d="M12.9959 9.16034C12.9624 7.04891 12.6867 6.44727 10.5765 6.06641C10.5765 6.06641 10.2795 6.44493 9.58713 6.44493C9.5585 6.44493 9.53074 6.44406 9.50342 6.44282C9.94332 6.64115 10.3435 6.91731 10.6382 7.32141C11.1477 8.02002 11.2648 8.95849 11.289 10.3372C12.7087 10.0566 12.9996 9.47082 12.9996 9.47082C12.9996 9.39447 12.9996 9.3421 12.9998 9.3063C12.9992 9.31889 12.998 9.29632 12.9959 9.16034Z" fill="#00642F"/>
<path d="M3.41274 5.89801C3.70985 5.89801 3.98989 5.81038 4.23719 5.65604C3.87755 5.08655 3.68226 4.39876 3.68226 3.67835C3.68226 3.04206 3.73105 2.24497 4.08697 1.58875C3.8951 1.53668 3.67205 1.50879 3.41274 1.50879C1.8715 1.50879 1.60596 2.49136 1.60596 3.70343C1.60596 4.91544 2.4149 5.89801 3.41274 5.89801Z" fill="#00642F"/>
<path d="M3.49629 6.44282C3.46904 6.44406 3.44128 6.44493 3.41258 6.44493C2.72023 6.44493 2.42318 6.06641 2.42318 6.06641C0.313056 6.44727 0.0372694 7.04887 0.00385084 9.16034C0.00167428 9.29636 0.000569255 9.31889 0 9.30627C6.69711e-05 9.34207 0.000133942 9.39444 0.000133942 9.47078C0.000133942 9.47078 0.291123 10.0566 1.71071 10.3372C1.73499 8.95849 1.85205 8.02002 2.3616 7.32138C2.65628 6.91734 3.05639 6.64115 3.49629 6.44282Z" fill="#00642F"/>
</svg>
