<svg width="12" height="14" viewBox="0 0 12 14" fill="none" xmlns="http://www.w3.org/2000/svg">
<path d="M11.6846 3.12926L11.3755 2.20267C11.2578 1.84976 10.9287 1.61264 10.5568 1.61264H7.95879V0.7668C7.95879 0.34404 7.61507 0 7.19241 0H4.81329C4.39075 0 4.04692 0.34404 4.04692 0.7668V1.61264H1.44905C1.07703 1.61264 0.74794 1.84976 0.630234 2.20267L0.321121 3.12926C0.250732 3.34021 0.286407 3.57381 0.416397 3.75421C0.546387 3.93462 0.756698 4.04239 0.97908 4.04239H1.30218L2.01334 12.8363C2.06621 13.4888 2.61992 14 3.27414 14H8.87587C9.52998 14 10.0838 13.4888 10.1366 12.8362L10.8477 4.04239H11.0266C11.249 4.04239 11.4593 3.93462 11.5893 3.75432C11.7193 3.57391 11.755 3.34021 11.6846 3.12926ZM4.86723 0.820312H7.13847V1.61264H4.86723V0.820312ZM9.31892 12.7701C9.30034 12.9998 9.10573 13.1797 8.87587 13.1797H3.27414C3.04428 13.1797 2.84967 12.9998 2.83109 12.7701L2.12517 4.04239H10.0247L9.31892 12.7701ZM1.155 3.22208L1.40846 2.46222C1.41423 2.4447 1.43057 2.43295 1.44905 2.43295H10.5568C10.5752 2.43295 10.5915 2.4447 10.5974 2.46222L10.8508 3.22208H1.155Z" fill="white"/>
</svg>
