<svg width="64" height="72" viewBox="0 0 64 72" fill="none" xmlns="http://www.w3.org/2000/svg">
<g filter="url(#filter0_d)">
<path d="M41.6593 34.0591H41.6128C40.7221 34.0591 39.9724 34.8162 39.9724 35.7892V37.1378C39.9724 37.4065 39.7543 37.6246 39.4857 37.6246C39.2167 37.6246 38.9989 37.4065 38.9989 37.1378V34.6475C38.9989 33.6745 38.2924 32.883 37.402 32.883C36.5067 32.883 35.8001 33.6745 35.8001 34.6475V37.2869C35.8001 37.5559 35.582 37.7737 35.3134 37.7737C35.0445 37.7737 34.8266 37.5559 34.8266 37.2869V33.9228C34.8266 32.9501 34.0921 32.1816 33.2017 32.1816H33.1523C32.2841 32.1816 31.5583 32.9104 31.5583 33.8494V37.6376C31.5583 37.9065 31.3402 38.1244 31.0716 38.1244C30.8027 38.1244 30.5848 37.9065 30.5848 37.6376V33.9592C30.5848 33.9472 30.5835 33.9347 30.5835 33.9225C30.5835 33.8926 30.5848 33.8628 30.5848 33.8331V25.233C30.5848 24.26 29.8506 23.4688 28.9605 23.4688C28.07 23.4688 27.3361 24.2597 27.3353 25.2319L27.3255 39.4934C27.3252 39.699 27.1962 39.8824 27.0025 39.9517C26.8091 40.0209 26.5929 39.9612 26.4625 39.8023L24.7597 37.7294C24.3107 37.1669 23.6479 36.8165 22.93 36.7619C22.2272 36.7154 21.5368 36.9632 21.0239 37.4458C21.0179 37.4513 21.0117 37.4578 21.0052 37.4632L20.6719 37.7419L26.5758 49.0877C27.5078 50.8786 29.2701 51.9999 31.1745 51.9999H37.9993C40.9036 51.9999 43.2687 49.4447 43.2717 46.3146C43.2733 44.6571 43.2749 43.4139 43.2763 42.4124C43.2798 39.7352 43.2809 38.7505 43.2741 35.8014C43.2719 34.8311 42.5475 34.0591 41.6593 34.0591Z" fill="white"/>
<path d="M24.5298 25.4033C24.7987 25.4033 25.0165 25.1855 25.0165 24.9165C25.0108 23.5106 25.7575 22.2086 26.9742 21.504C28.1908 20.7994 29.6916 20.7994 30.9082 21.504C32.1249 22.2086 32.8716 23.5106 32.8656 24.9165C32.8656 25.1855 33.0837 25.4033 33.3524 25.4033C33.6213 25.4033 33.8391 25.1855 33.8391 24.9165C33.8459 23.1623 32.9137 21.5383 31.3955 20.6593C29.8774 19.7802 28.005 19.7802 26.4869 20.6593C24.9687 21.5383 24.0365 23.1623 24.043 24.9165C24.043 25.1855 24.2611 25.4033 24.5298 25.4033Z" fill="white"/>
</g>
<defs>
<filter id="filter0_d" x="-4" y="0" width="72" height="72" filterUnits="userSpaceOnUse" color-interpolation-filters="sRGB">
<feFlood flood-opacity="0" result="BackgroundImageFix"/>
<feColorMatrix in="SourceAlpha" type="matrix" values="0 0 0 0 0 0 0 0 0 0 0 0 0 0 0 0 0 0 127 0"/>
<feOffset/>
<feGaussianBlur stdDeviation="10"/>
<feColorMatrix type="matrix" values="0 0 0 0 0 0 0 0 0 0 0 0 0 0 0 0 0 0 0.6 0"/>
<feBlend mode="normal" in2="BackgroundImageFix" result="effect1_dropShadow"/>
<feBlend mode="normal" in="SourceGraphic" in2="effect1_dropShadow" result="shape"/>
</filter>
</defs>
</svg>
