<svg width="11" height="11" viewBox="0 0 11 11" fill="none" xmlns="http://www.w3.org/2000/svg">
<g clip-path="url(#clip0)">
<path d="M6.5078 5.50876L10.791 1.22545C11.0697 0.946836 11.0697 0.496359 10.791 0.217748C10.5124 -0.0608639 10.0619 -0.0608639 9.78329 0.217748L5.49996 4.50106L1.21676 0.217748C0.938019 -0.0608639 0.48767 -0.0608639 0.209058 0.217748C-0.0696859 0.496359 -0.0696859 0.946836 0.209058 1.22545L4.49226 5.50876L0.209058 9.79207C-0.0696859 10.0707 -0.0696859 10.5212 0.209058 10.7998C0.347907 10.9388 0.530474 11.0086 0.71291 11.0086C0.895346 11.0086 1.07778 10.9388 1.21676 10.7998L5.49996 6.51646L9.78329 10.7998C9.92227 10.9388 10.1047 11.0086 10.2871 11.0086C10.4696 11.0086 10.652 10.9388 10.791 10.7998C11.0697 10.5212 11.0697 10.0707 10.791 9.79207L6.5078 5.50876Z" fill="white"/>
</g>
<defs>
<clipPath id="clip0">
<rect width="11" height="11" fill="white"/>
</clipPath>
</defs>
</svg>
