<svg width="16" height="16" viewBox="0 0 16 16" fill="none" xmlns="http://www.w3.org/2000/svg">
<path d="M14.9038 4.41576L14.8919 4.39529C14.8755 4.36126 14.8566 4.32867 14.8354 4.2977L12.6095 0.449376C12.4492 0.172188 12.1507 0 11.8305 0H4.16993C3.84921 0 3.55046 0.172594 3.39018 0.450532L1.12798 4.3751C1.10761 4.41048 1.09292 4.44748 1.08255 4.48507C1.0507 4.57104 1.0332 4.66395 1.0332 4.76088V14.8973C1.0332 15.5053 1.52786 16 2.13586 16H13.8641C14.4721 16 14.9668 15.5053 14.9668 14.8973V4.72373C14.9668 4.71013 14.9664 4.69663 14.9657 4.6832C14.972 4.59298 14.9525 4.49995 14.9038 4.41576ZM8.48497 0.937846H11.8087L13.5597 3.96513H8.48497V0.937846ZM4.19177 0.937846H7.54712V3.96513H2.44677L4.19177 0.937846ZM14.0289 14.8973C14.0289 14.9882 13.955 15.0622 13.8641 15.0622H2.13586C2.04499 15.0622 1.97105 14.9882 1.97105 14.8973V4.90298H14.0289V14.8973Z" fill="white"/>
<path d="M10.1292 8.4381C9.94611 8.25501 9.64917 8.25501 9.46605 8.4381L7.37223 10.5319L6.5671 9.72679C6.38401 9.5437 6.08707 9.5437 5.90395 9.72679C5.72082 9.90988 5.72082 10.2068 5.90395 10.3899L7.0407 11.5266C7.13226 11.6182 7.25229 11.664 7.37226 11.664C7.49223 11.664 7.61229 11.6182 7.70382 11.5266L10.1292 9.10126C10.3123 8.91813 10.3123 8.62123 10.1292 8.4381Z" fill="white"/>
</svg>
