<svg width="18" height="18" viewBox="0 0 18 18" fill="none" xmlns="http://www.w3.org/2000/svg">
<path d="M0.527344 4.21875H13.7812V17.4727C13.7812 17.7641 14.0171 18 14.3086 18H15.3633C15.6548 18 15.8906 17.7641 15.8906 17.4727V2.63672C15.8906 2.34524 15.6548 2.10938 15.3633 2.10938H0.527344C0.235863 2.10938 0 2.34524 0 2.63672V3.69141C0 3.98289 0.235863 4.21875 0.527344 4.21875Z" fill="black"/>
<path d="M9 7.41797C8.70852 7.41797 8.47266 7.65383 8.47266 7.94531V8.47266H7.94531C7.65383 8.47266 7.38281 8.70852 7.38281 9C7.38281 9.29148 7.65383 9.52734 7.94531 9.52734H8.47266V10.0547C8.47266 10.3462 8.70852 10.582 9 10.582C9.29148 10.582 9.52734 10.3462 9.52734 10.0547V9.52734H10.0547C10.3462 9.52734 10.582 9.29148 10.582 9C10.582 8.70852 10.3462 8.47266 10.0547 8.47266H9.52734V7.94531C9.52734 7.65383 9.29148 7.41797 9 7.41797Z" fill="black"/>
<path d="M2.10938 5.27344V15.3633C2.10938 15.6548 2.34524 15.8906 2.63672 15.8906H12.7266V13.7812H4.21875V5.27344H2.10938Z" fill="black"/>
<path d="M3.69141 0H2.63672C2.34524 0 2.10938 0.235863 2.10938 0.527344V1.05469H4.21875V0.527344C4.21875 0.235863 3.98289 0 3.69141 0Z" fill="black"/>
<path d="M17.4727 13.7812H16.9453V15.8906H17.4727C17.7641 15.8906 18 15.6548 18 15.3633V14.3086C18 14.0171 17.7641 13.7812 17.4727 13.7812Z" fill="black"/>
</svg>
