<svg width="18" height="18" viewBox="0 0 18 18" fill="none" xmlns="http://www.w3.org/2000/svg">
<g clip-path="url(#clip0)">
<path d="M17.9999 3.65633C17.9999 3.3651 17.7638 3.12899 17.4726 3.12899H17.3043L17.4939 2.93939C18.1648 2.26854 18.1648 1.17698 17.4939 0.506133C16.8189 -0.168864 15.7301 -0.163344 15.0606 0.506133L12.4377 3.12903H3.33983V1.96887C3.33983 1.67764 3.10372 1.44153 2.81249 1.44153H2.10937C0.946262 1.44153 0 2.38779 0 3.5509V14.4493C0 15.6124 0.946262 16.5587 2.10937 16.5587H14.3848L15.6564 17.8437C15.8602 18.0496 16.192 18.0526 16.3994 17.8502L17.8408 16.4439C17.9428 16.3445 18.0041 16.2046 17.999 16.0491C18.0004 16.0075 17.9999 13.3606 17.9999 3.65633ZM11.25 7.6918L10.3082 6.75007L14.9062 2.15211L15.8479 3.09383L11.25 7.6918ZM9.70692 7.64029L10.3597 8.29307L9.05411 8.94585L9.70692 7.64029ZM16.277 1.05685C16.8661 1.05685 17.1682 1.77358 16.7481 2.19359L16.5937 2.34807L15.652 1.40634L15.8064 1.2519C15.9322 1.12611 16.0993 1.05685 16.277 1.05685ZM1.05468 3.55086C1.05468 2.96931 1.52781 2.49618 2.10937 2.49618H2.28515V12.129H2.10937C1.72546 12.129 1.36511 12.2321 1.05468 12.412C1.05468 12.0521 1.05468 3.92626 1.05468 3.55086ZM1.05468 14.4493V14.2383C1.05468 13.6568 1.52781 13.1836 2.10937 13.1836H2.81249C3.10372 13.1836 3.33983 12.9475 3.33983 12.6563V4.18367H11.3831C8.99933 6.56743 9.14744 6.40301 9.09235 6.51154C9.09017 6.51582 7.4017 9.88962 7.38718 9.92495C7.33086 10.0621 7.34763 9.86979 7.34763 13.254H5.58982V6.4337H7.87497C8.1662 6.4337 8.40231 6.19759 8.40231 5.90636C8.40231 5.61513 8.1662 5.37902 7.87497 5.37902H5.06248C4.77125 5.37902 4.53514 5.61513 4.53514 5.90636V13.7813C4.53514 14.0726 4.77125 14.3087 5.06248 14.3087H10.6875C10.9787 14.3087 11.2148 14.0726 11.2148 13.7813V10.9688C11.2148 10.6776 10.9787 10.4415 10.6875 10.4415C10.3962 10.4415 10.1601 10.6776 10.1601 10.9688V13.254H8.40231V10.451C11.7596 8.77239 11.5188 8.89973 11.587 8.84284C11.618 8.81707 11.3414 9.09189 16.2496 4.18371H16.9452V14.7959L15.1755 13.0311C14.5785 12.4278 13.6109 12.4325 13.0179 13.0254C12.4277 13.6156 12.4252 14.5785 13.0123 15.1718L13.341 15.504H2.10937C1.52781 15.5039 1.05468 15.0308 1.05468 14.4493ZM14.3545 15.0286L13.762 14.4299C13.5818 14.2478 13.5826 13.9523 13.7637 13.7711C13.9437 13.5912 14.2391 13.5842 14.4283 13.7754L15.0189 14.3643L14.3545 15.0286ZM16.0377 16.7296L15.0964 15.7783L15.7657 15.109L16.7217 16.0623L16.0377 16.7296Z" fill="#00642F"/>
</g>
<defs>
<clipPath id="clip0">
<rect width="18" height="18" fill="white"/>
</clipPath>
</defs>
</svg>
