<svg width="19" height="19" viewBox="0 0 19 19" fill="none" xmlns="http://www.w3.org/2000/svg">
<path d="M2.77083 18.1497H13.3958C14.4555 18.1497 15.3167 17.2877 15.3167 16.2288V9.85384C15.3167 9.5755 15.0908 9.34967 14.8125 9.34967C14.5342 9.34967 14.3083 9.5755 14.3083 9.85384V16.2288C14.3083 16.7318 13.8988 17.1413 13.3958 17.1413H2.77083C2.26788 17.1413 1.85833 16.7318 1.85833 16.2288V5.60384C1.85833 5.10089 2.26788 4.69134 2.77083 4.69134H9.14583C9.42418 4.69134 9.65 4.46552 9.65 4.18717C9.65 3.90883 9.42418 3.68301 9.14583 3.68301H2.77083C1.71116 3.68301 0.85 4.54495 0.85 5.60384V16.2288C0.85 17.2877 1.71116 18.1497 2.77083 18.1497Z" fill="#00642F" stroke="#00642F" stroke-width="0.3"/>
<path d="M6.85782 12.1433L6.85726 12.1428C6.73845 12.024 6.68591 11.8528 6.71921 11.6871L6.71919 11.6871L6.85782 12.1433ZM6.85782 12.1433C6.95324 12.2378 7.08184 12.2901 7.21407 12.2901C7.24594 12.2901 7.27974 12.2873 7.31409 12.2799L9.81683 11.7801L9.81744 11.7799C9.91441 11.7602 10.0045 11.7132 10.0752 11.6416C10.0753 11.6415 10.0755 11.6414 10.0756 11.6412L17.5881 4.1287C17.9506 3.76621 18.1506 3.28322 18.1506 2.7703C18.1506 2.25737 17.9506 1.77431 17.5873 1.41179C16.8388 0.662651 15.6205 0.662785 14.8713 1.4119L7.35874 8.92451C7.28554 8.99599 7.23978 9.08646 7.22016 9.18159L7.21999 9.18248L6.71923 11.687L6.85782 12.1433ZM16.8745 3.41578L16.8745 3.41578L9.46983 10.8212L7.85717 11.1436L8.1796 9.5302L15.585 2.12483L15.5851 2.12474C15.9401 1.76909 16.52 1.76906 16.875 2.12464C17.0476 2.29781 17.1422 2.52611 17.1422 2.7703C17.1422 3.01446 17.0476 3.24267 16.8745 3.41578Z" fill="#00642F" stroke="#00642F" stroke-width="0.3"/>
<path d="M15.8728 5.1313L15.8733 5.13186C15.9717 5.22923 16.1007 5.27867 16.2296 5.27867C16.3584 5.27867 16.4877 5.2293 16.5857 5.13132C16.7824 4.93462 16.7824 4.61512 16.5857 4.41841C16.5857 4.41841 16.5857 4.4184 16.5857 4.41839L14.5825 2.41454L14.5825 2.41452C14.3858 2.21782 14.0663 2.21782 13.8696 2.41452C13.6729 2.61122 13.6729 2.93072 13.8696 3.12743C13.8696 3.12743 13.8696 3.12744 13.8696 3.12744L15.8728 5.1313L15.8728 5.1313Z" fill="#00642F" stroke="#00642F" stroke-width="0.3"/>
</svg>
