<svg width="15" height="15" viewBox="0 0 15 15" fill="none" xmlns="http://www.w3.org/2000/svg">
<g clip-path="url(#clip0)">
<path d="M9.94312 7.57699L15 10.7739V4.24512L9.94312 7.57699Z" fill="#00642F"/>
<path d="M0 4.24512V10.7739L5.05688 7.57699L0 4.24512Z" fill="#00642F"/>
<path d="M14.0625 2.34375H0.937512C0.4697 2.34375 0.0984497 2.6925 0.0281372 3.14156L7.50001 8.06437L14.9719 3.14156C14.9016 2.6925 14.5303 2.34375 14.0625 2.34375Z" fill="#00642F"/>
<path d="M9.0844 8.14352L7.75784 9.01727C7.67909 9.06883 7.59003 9.09414 7.50003 9.09414C7.41003 9.09414 7.32097 9.06883 7.24222 9.01727L5.91565 8.14258L0.0300293 11.8654C0.102217 12.3107 0.471592 12.6566 0.937529 12.6566H14.0625C14.5285 12.6566 14.8978 12.3107 14.97 11.8654L9.0844 8.14352Z" fill="#00642F"/>
</g>
<defs>
<clipPath id="clip0">
<rect width="15" height="15" fill="white"/>
</clipPath>
</defs>
</svg>
