<svg width="44" height="44" viewBox="0 0 44 44" fill="none" xmlns="http://www.w3.org/2000/svg">
<g clip-path="url(#clip0)">
<path d="M32.8638 0H11.1466C8.62736 0 6.86901 2.01542 6.61194 4.53469V39.4653C6.61194 41.9846 8.62736 44.0001 11.1466 44.0001H32.8535C35.3728 44.0001 37.3882 41.9846 37.3882 39.4653V4.53469C37.3882 1.95372 35.3728 0 32.8638 0ZM28.7096 25.8611C26.5707 25.8611 24.8124 24.1028 24.8124 21.964C24.8124 19.8251 26.5709 18.0668 28.7096 18.0668C30.8483 18.0668 32.6065 19.8251 32.6065 21.964C32.6065 24.1028 30.8484 25.8611 28.7096 25.8611Z" fill="#595959"/>
</g>
<defs>
<clipPath id="clip0">
<rect width="44" height="44" fill="white"/>
</clipPath>
</defs>
</svg>
