<svg width="29" height="29" viewBox="0 0 29 29" fill="none" xmlns="http://www.w3.org/2000/svg">
<g clip-path="url(#clip0)">
<path d="M28.2107 21.2831L24.1637 17.236C22.7183 15.7907 20.2612 16.3689 19.683 18.2478C19.2494 19.5487 17.804 20.2714 16.5032 19.9822C13.6125 19.2596 9.70997 15.5016 8.98728 12.4663C8.55367 11.1654 9.42089 9.72006 10.7217 9.2865C12.6007 8.70835 13.1789 6.25123 11.7335 4.80586L7.68645 0.758819C6.53015 -0.25294 4.79571 -0.25294 3.78395 0.758819L1.03775 3.50502C-1.70846 6.39576 1.32682 14.0562 8.12006 20.8495C14.9133 27.6427 22.5738 30.8226 25.4645 27.9318L28.2107 25.1856C29.2225 24.0293 29.2225 22.2948 28.2107 21.2831Z" fill="#00642F"/>
</g>
<defs>
<clipPath id="clip0">
<rect width="29" height="29" fill="white"/>
</clipPath>
</defs>
</svg>
