<svg width="22" height="22" viewBox="0 0 22 22" fill="none" xmlns="http://www.w3.org/2000/svg">
<g clip-path="url(#clip0)">
<path d="M22 12.7896C22 11.7019 20.6096 10.9142 17.7493 10.3818C17.3993 10.3166 17.0628 10.5475 16.9977 10.8975C16.9326 11.2475 17.1634 11.5839 17.5134 11.6491C19.7728 12.0697 20.5543 12.5913 20.6959 12.7872C20.5994 12.9107 20.0871 13.4067 17.8713 13.8604C17.2589 13.9858 16.5856 14.0926 15.8677 14.1798L14.4188 6.97039V4.57054C14.4188 3.97629 13.9353 3.4928 13.3411 3.4928H13.0777V2.07775C13.0778 0.932078 12.1457 0 11 0C9.85432 0 8.92225 0.932078 8.92225 2.07775V3.49276H8.65889C8.06463 3.49276 7.58115 3.97624 7.58115 4.5705V6.97035L6.13224 14.1798C5.41432 14.0926 4.74104 13.9857 4.1287 13.8603C1.91288 13.4066 1.40057 12.9106 1.30406 12.7872C1.44564 12.5912 2.22711 12.0696 4.48658 11.649C4.83652 11.5839 5.06743 11.2474 5.00225 10.8974C4.93707 10.5475 4.60058 10.3165 4.25064 10.3818C1.39043 10.9142 0 11.7018 0 12.7896C0 14.6009 4.07928 15.2234 5.87744 15.4477L5.30204 18.3107C5.28215 18.4099 5.2858 18.5122 5.31279 18.6097L6.1203 21.5273C6.26179 22.0387 6.92368 22.1675 7.24861 21.7532L9.11707 19.3709C9.17933 19.2915 9.22208 19.1986 9.24189 19.0997L9.91611 15.7318C10.6395 15.7483 11.3599 15.7483 12.0838 15.7318L12.758 19.0997C12.7778 19.1986 12.8206 19.2915 12.8828 19.3709L14.7513 21.7532C15.0767 22.1681 15.7383 22.0379 15.8796 21.5273L16.6871 18.6096C16.7141 18.5122 16.7178 18.4098 16.6979 18.3107L16.1225 15.4476C17.9184 15.2237 22 14.6013 22 12.7896ZM10.2113 2.07775C10.2113 1.64287 10.5651 1.28906 11 1.28906C11.4349 1.28906 11.7887 1.64287 11.7887 2.07775V3.49276H10.2113V2.07775H10.2113ZM8.87021 4.78182H13.1298V6.38997C12.6779 6.38997 9.31485 6.38997 8.87021 6.38997V4.78182ZM8.00809 18.6962L7.02217 19.9532L6.59613 18.414L7.165 15.5834C7.63473 15.6245 8.11787 15.6579 8.61124 15.6834L8.00809 18.6962ZM8.86707 14.4052C8.37375 14.3819 7.89057 14.3503 7.42066 14.311L8.75351 7.67903H10.2136L8.86707 14.4052ZM10.1732 14.4476L11 10.3179L11.8268 14.4476C11.2855 14.4573 10.7525 14.458 10.1732 14.4476ZM11.7864 7.67903H13.2464L14.5793 14.311C14.1094 14.3503 13.6262 14.3819 13.1329 14.4052L11.7864 7.67903ZM14.9779 19.9532L13.992 18.6962L13.3888 15.6834C13.8822 15.6579 14.3653 15.6245 14.835 15.5834L15.4039 18.414L14.9779 19.9532Z" fill="#00642F"/>
</g>
<defs>
<clipPath id="clip0">
<rect width="22" height="22" fill="white"/>
</clipPath>
</defs>
</svg>
