<svg width="19" height="19" viewBox="0 0 19 19" fill="none" xmlns="http://www.w3.org/2000/svg">
<g clip-path="url(#clip0)">
<path d="M18.7784 0.72427C18.6134 0.591268 18.3853 0.55683 18.1858 0.635206L0.373065 7.76032C0.153374 7.84819 0.00612145 8.05838 0.00018386 8.29589C-0.00575373 8.53339 0.129623 8.75071 0.345752 8.85046L5.93778 11.4321L18.4067 1.18621L8.31282 12.5282V18.4052L12.5261 14.4734L15.7823 15.9756C15.8619 16.0112 15.9474 16.0302 16.0317 16.0302C16.1267 16.0302 16.2229 16.0064 16.3084 15.9613C16.4734 15.8746 16.5863 15.7167 16.6171 15.5338L18.9922 1.28359C19.0266 1.0734 18.9459 0.85846 18.7784 0.72427Z" fill="#00642F"/>
</g>
<defs>
<clipPath id="clip0">
<rect width="19" height="19" fill="white"/>
</clipPath>
</defs>
</svg>
