<svg width="20" height="20" viewBox="0 0 20 20" fill="none" xmlns="http://www.w3.org/2000/svg">
<g clip-path="url(#clip0)">
<path d="M4.58266 7.50002H5.41598C5.64609 7.50002 5.83266 7.31346 5.83266 7.08334V5.34506L9.41012 8.92252C9.57289 9.08529 9.78609 9.16666 9.9993 9.16666C10.2125 9.16666 10.4257 9.08529 10.5885 8.92252L15.7106 3.80045C15.8734 3.63771 15.8734 3.37393 15.7106 3.21119L15.1215 2.62205C14.9587 2.45932 14.695 2.45932 14.5322 2.62205L9.99934 7.15498L7.01105 4.1667H8.74934C8.97945 4.1667 9.16602 3.98014 9.16602 3.75002V2.9167C9.16602 2.68658 8.97945 2.50002 8.74934 2.50002H4.99934C4.5391 2.50002 4.16602 2.87311 4.16602 3.33334V7.08334C4.16602 7.31346 4.35254 7.50002 4.58266 7.50002Z" fill="#00642F"/>
<path d="M19.6594 13.3735C17.0801 10.6611 13.6496 9.16699 9.99959 9.16699C6.35006 9.16699 2.91947 10.6611 0.340605 13.3735C-0.113535 13.8512 -0.113535 14.628 0.340605 15.1053L2.26143 17.1264C2.71314 17.6008 3.51482 17.6008 3.96654 17.1264C4.60912 16.4505 5.33959 15.8935 6.13397 15.4728C6.53197 15.2677 6.78916 14.836 6.78549 14.4278L7.07604 12.2379C9.20275 11.5591 10.8188 11.5588 12.9243 12.2375L13.2108 14.3729C13.2108 14.8347 13.4558 15.2563 13.8562 15.4764C14.6547 15.8992 15.3851 16.4562 16.0281 17.1317C16.254 17.3698 16.5568 17.5004 16.8807 17.5004C17.2042 17.5004 17.507 17.3698 17.7329 17.1321L19.6594 15.1058C20.1136 14.628 20.1136 13.8512 19.6594 13.3735Z" fill="#00642F"/>
</g>
<defs>
<clipPath id="clip0">
<rect width="20" height="20" fill="white"/>
</clipPath>
</defs>
</svg>
