<svg width="44" height="44" viewBox="0 0 44 44" fill="none" xmlns="http://www.w3.org/2000/svg">
<path d="M11.9166 0H4.58325V12.8333H11.9166V0Z" fill="#595959"/>
<path d="M21.0833 0H13.75V29.3333H21.0833V0Z" fill="#595959"/>
<path d="M21.0833 31.167H13.75V44.0003H21.0833V31.167Z" fill="#595959"/>
<path d="M30.2499 0H22.9166V16.5H30.2499V0Z" fill="#595959"/>
<path d="M32.0833 0V24.75C32.0833 25.2563 32.4937 25.6667 32.9999 25.6667H38.4999C39.0062 25.6667 39.4166 25.2563 39.4166 24.75V0H32.0833Z" fill="#595959"/>
<path d="M30.2499 18.333H22.9166V43.9997H30.2499V18.333Z" fill="#595959"/>
<path d="M4.58325 35.7503C4.58325 36.2565 4.99369 36.667 5.49995 36.667H10.9999C11.5062 36.667 11.9166 36.2565 11.9166 35.7503V14.667H4.58325V35.7503Z" fill="#595959"/>
</svg>
