<svg width="44" height="44" viewBox="0 0 44 44" fill="none" xmlns="http://www.w3.org/2000/svg">
<g clip-path="url(#clip0)">
<path d="M35.1916 8.28543L25.32 1.08082C23.3477 -0.35858 20.6961 -0.3604 18.7217 1.07614L8.81552 8.28456C7.21268 9.45088 6.25574 11.3306 6.25574 13.313V37.326C6.25574 41.0061 9.24971 44 12.9298 44H31.07C34.7502 44 37.7442 41.0061 37.7442 37.326V13.3086C37.7443 11.3298 36.7899 9.45201 35.1916 8.28543ZM22.0621 6.48482C22.8699 6.48482 23.5249 7.13982 23.5249 7.9477C23.5249 8.75558 22.87 9.41058 22.0621 9.41058C21.2541 9.41058 20.5992 8.75566 20.5992 7.9477C20.5992 7.13973 21.2542 6.48482 22.0621 6.48482ZM12.264 20.7819C12.264 18.488 14.1205 16.6311 16.4148 16.6311C18.7087 16.6311 20.5655 18.4876 20.5655 20.7819C20.5655 23.0758 18.709 24.9326 16.4148 24.9326C14.1208 24.9326 12.264 23.0761 12.264 20.7819ZM16.7046 33.0491C15.4804 33.0491 14.8482 31.558 15.7242 30.6821L26.4391 19.9672C26.9806 19.4256 27.8586 19.4256 28.4 19.9672C28.9416 20.5086 28.9416 21.3866 28.4 21.9281L17.6851 32.643C17.4144 32.9138 17.0595 33.0491 16.7046 33.0491ZM30.5202 34.8874C30.5202 34.8367 29.5333 36.1012 27.5853 36.1012C25.3041 36.1012 23.4345 34.2605 23.4345 31.9524C23.4345 29.6586 25.2908 27.8017 27.5853 27.8017C31.3016 27.8018 33.1078 32.3 30.5202 34.8874Z" fill="#00642F"/>
<path d="M27.5853 30.5752C26.8241 30.5752 26.2078 31.1912 26.2078 31.9526C26.2078 33.1762 27.6966 33.7893 28.5592 32.9266C28.5592 32.9095 28.9626 32.5935 28.9626 31.9526C28.9627 31.1914 28.3466 30.5752 27.5853 30.5752Z" fill="#00642F"/>
<path d="M17.3887 21.7557C18.2486 20.8959 17.6458 19.4043 16.4148 19.4043C15.6534 19.4043 15.0372 20.0204 15.0372 20.7818C15.0373 22.0151 16.5301 22.6144 17.3887 21.7557Z" fill="#00642F"/>
</g>
<defs>
<clipPath id="clip0">
<rect width="44" height="44" fill="white"/>
</clipPath>
</defs>
</svg>
