<svg width="19" height="19" viewBox="0 0 19 19" fill="none" xmlns="http://www.w3.org/2000/svg">
<path d="M9.49996 0C9.80738 0 10.0566 0.249227 10.0566 0.556641V4.13398C10.0566 4.4414 9.80738 4.69063 9.49996 4.69063C9.19255 4.69063 8.94332 4.4414 8.94332 4.13398V0.556641C8.94332 0.249227 9.19255 0 9.49996 0Z" fill="#00642F"/>
<path d="M9.49996 14.3096C9.80738 14.3096 10.0566 14.5588 10.0566 14.8662V18.4435C10.0566 18.7509 9.80738 19.0002 9.49996 19.0002C9.19255 19.0002 8.94332 18.7509 8.94332 18.4435V14.8662C8.94332 14.5588 9.19255 14.3096 9.49996 14.3096Z" fill="#00642F"/>
<path d="M11.7009 4.57477L13.4896 1.4767C13.6433 1.21044 13.9837 1.11915 14.25 1.27297C14.5162 1.42667 14.6074 1.76708 14.4537 2.03334L12.665 5.13141C12.5619 5.31002 12.3748 5.40985 12.1824 5.40985C12.088 5.40985 11.9923 5.3858 11.9046 5.33514C11.6384 5.18144 11.5472 4.84103 11.7009 4.57477Z" fill="#00642F"/>
<path d="M4.54624 16.9673L6.33487 13.8693C6.48858 13.603 6.82898 13.5117 7.09524 13.6655C7.36146 13.8193 7.45271 14.1597 7.29897 14.4259L5.51034 17.5239C5.40725 17.7025 5.22014 17.8023 5.02777 17.8023C4.93333 17.8023 4.83758 17.7783 4.74997 17.7276C4.48375 17.5739 4.3925 17.2335 4.54624 16.9673Z" fill="#00642F"/>
<path d="M13.8687 6.33516L16.9669 4.5464C17.2331 4.39259 17.5735 4.48387 17.7272 4.75014C17.8809 5.01636 17.7897 5.3568 17.5235 5.51051L14.4254 7.29926C14.3377 7.34988 14.242 7.37396 14.1476 7.37396C13.9552 7.37396 13.7681 7.2741 13.665 7.09553C13.5113 6.82931 13.6025 6.48886 13.8687 6.33516Z" fill="#00642F"/>
<path d="M1.47648 13.4893L4.57451 11.7007C4.84085 11.5469 5.18121 11.6382 5.33488 11.9044C5.48859 12.1707 5.39741 12.5111 5.13115 12.6648L2.03312 14.4534C1.94547 14.504 1.8498 14.5281 1.75536 14.5281C1.56295 14.5281 1.37584 14.4282 1.27275 14.2496C1.11904 13.9834 1.21022 13.6429 1.47648 13.4893Z" fill="#00642F"/>
<path d="M14.866 8.94336H18.4434C18.7508 8.94336 19 9.19259 19 9.50001C19 9.80743 18.7508 10.0567 18.4434 10.0567H14.866C14.5586 10.0567 14.3093 9.80743 14.3093 9.50001C14.3093 9.19259 14.5586 8.94336 14.866 8.94336Z" fill="#00642F"/>
<path d="M0.556642 8.94336H4.13391C4.44133 8.94336 4.69055 9.19259 4.69055 9.50001C4.69055 9.80743 4.44133 10.0567 4.13391 10.0567H0.556642C0.249228 10.0567 9.53674e-07 9.80743 9.53674e-07 9.50001C9.53674e-07 9.19259 0.249228 8.94336 0.556642 8.94336Z" fill="#00642F"/>
<path d="M13.665 11.9044C13.8186 11.6382 14.159 11.5469 14.4253 11.7007L17.5235 13.4894C17.7897 13.6431 17.8809 13.9835 17.7272 14.2498C17.6241 14.4284 17.437 14.5282 17.2446 14.5282C17.1502 14.5282 17.0545 14.5041 16.9668 14.4535L13.8687 12.6648C13.6025 12.5111 13.5113 12.1707 13.665 11.9044Z" fill="#00642F"/>
<path d="M1.27278 4.75012C1.42648 4.48386 1.76689 4.39261 2.03315 4.54639L5.13118 6.33507C5.39741 6.48877 5.48858 6.82918 5.33491 7.09544C5.23182 7.27405 5.04476 7.37387 4.85231 7.37387C4.7579 7.37387 4.6622 7.34983 4.57454 7.29917L1.47651 5.51049C1.21025 5.35679 1.11907 5.01634 1.27278 4.75012Z" fill="#00642F"/>
<path d="M11.9046 13.6655C12.1709 13.5117 12.5113 13.603 12.665 13.8693L14.4537 16.9673C14.6074 17.2336 14.5162 17.574 14.25 17.7277C14.1623 17.7783 14.0666 17.8024 13.9722 17.8024C13.7798 17.8024 13.5926 17.7025 13.4896 17.524L11.7009 14.4259C11.5472 14.1597 11.6384 13.8193 11.9046 13.6655Z" fill="#00642F"/>
<path d="M4.74997 1.27297C5.01623 1.11916 5.35667 1.21041 5.51034 1.47671L7.29897 4.57472C7.45271 4.8409 7.36146 5.18134 7.09524 5.33509C7.00758 5.38571 6.91188 5.40979 6.81744 5.40979C6.62506 5.40979 6.43796 5.30996 6.33487 5.13136L4.54624 2.03335C4.3925 1.76712 4.48375 1.42668 4.74997 1.27297Z" fill="#00642F"/>
</svg>
